<?xml version="1.0" standalone="no"?><!DOCTYPE svg PUBLIC "-//W3C//DTD SVG 1.1//EN" "http://www.w3.org/Graphics/SVG/1.1/DTD/svg11.dtd"><svg t="1732645805198" class="icon" viewBox="0 0 1024 1024" version="1.1" xmlns="http://www.w3.org/2000/svg" p-id="1462" xmlns:xlink="http://www.w3.org/1999/xlink" width="200" height="200"><path d="M384 160h256c17.6 0 32-14.4 32-32s-14.4-32-32-32H384c-17.6 0-32 14.4-32 32s14.4 32 32 32zM896 224H128c-17.6 0-32 14.4-32 32s14.4 32 32 32h64v512c0 70.4 57.6 128 128 128h384c70.4 0 128-57.6 128-128V288h64c17.6 0 32-14.4 32-32s-14.4-32-32-32zM768 800c0 17-6.7 33-18.9 45.1S721 864 704 864H320c-17 0-33-6.7-45.1-18.9C262.7 833 256 817 256 800V288h512v512z" fill="#1875F0" p-id="1463"></path><path d="M384 736c17.6 0 32-14.4 32-32V448c0-17.6-14.4-32-32-32s-32 14.4-32 32v256c0 17.6 14.4 32 32 32zM512 736c17.6 0 32-14.4 32-32V448c0-17.6-14.4-32-32-32s-32 14.4-32 32v256c0 17.6 14.4 32 32 32zM640 736c17.6 0 32-14.4 32-32V448c0-17.6-14.4-32-32-32s-32 14.4-32 32v256c0 17.6 14.4 32 32 32z" fill="#1875F0" p-id="1464"></path></svg>